<svg version="1.2" xmlns="http://www.w3.org/2000/svg" viewBox="0 0 700 292" width="700" height="292">
	<title>drop-svg</title>
	<style>
		.s0 { fill: #ff6000 } 
	</style>
	<g id="Layer">
		<path id="Layer" fill-rule="evenodd" class="s0" d="m700 136.5v20.9c0 20.9-14.3 38.4-33.6 43.5v25.7c0 24.8-20.1 44.9-44.9 44.9-10 0-19.3-3.3-26.8-8.9-7.9 16.8-25 28.5-44.8 28.5-27.2 0-49.3-22.2-49.3-49.4v-51h-301.1v51c0 27.2-22.2 49.4-49.4 49.4-19.8 0-36.9-11.7-44.8-28.5-7.4 5.6-16.7 8.9-26.8 8.9-24.8 0-44.9-20.1-44.9-44.9v-25.7c-19.3-5.1-33.6-22.6-33.6-43.5v-20.9c0-20.8 14.3-38.4 33.6-43.4v-25.8c0-24.7 20.1-44.9 44.8-44.9h0.1c10.1 0 19.4 3.3 26.9 8.9 7.8-16.8 24.9-28.4 44.7-28.4 27.2 0 49.4 22.1 49.4 49.3v51h301.1v-51c0-27.2 22.1-49.3 49.3-49.3 19.8 0 36.9 11.6 44.8 28.4 7.5-5.6 16.8-8.9 26.8-8.9 24.8 0 45 20.2 45 44.9v25.8c19.2 5 33.5 22.6 33.5 43.4zm-666.4 40v-59c-6.5 3.8-10.9 10.9-10.9 19v20.9c0 8.1 4.4 15.2 10.9 19.1zm67.1 50.1v-159.3c0-12.2-10-22.2-22.2-22.2h-0.1c-12.2 0-22.1 10-22.1 22.2v159.3c0 12.3 9.9 22.2 22.1 22.2 12.3 0 22.3-9.9 22.3-22.2zm76.1-174.4c0-14.7-12-26.6-26.7-26.6-14.7 0-26.7 11.9-26.7 26.6v189.5c0 14.7 12 26.7 26.7 26.7 14.7 0 26.7-12 26.7-26.7zm323.8 115.7v-42h-301.1v42zm76 73.8v-189.5c0-14.7-11.9-26.7-26.6-26.7-14.7 0-26.7 12-26.7 26.7v189.4c0 14.7 12 26.7 26.7 26.7 14.7 0 26.6-11.9 26.6-26.6zm67.2-174.4c0-12.3-10-22.2-22.3-22.2-12.2 0-22.1 9.9-22.2 22.1v159.4c0.1 12.2 10 22.2 22.2 22.2 12.3 0 22.3-10 22.3-22.2zm33.5 69.2c0-8.1-4.3-15.2-10.8-19.1v59c6.5-3.8 10.8-10.9 10.8-19z"/>
		<path id="Shape 1" class="s0" d="m44 43h65v209h-65z"/>
		<path id="Shape 2" class="s0" d="m120 22h60v251h-60z"/>
		<path id="Shape 3" class="s0" d="m21 111h18v68h-18z"/>
		<path id="Shape 4" class="s0" d="m173 123h341v54h-341z"/>
		<path id="Shape 5" class="s0" d="m518 21h65v251h-65z"/>
		<path id="Shape 6" class="s0" d="m590 40h58v213h-58z"/>
		<path id="Shape 7" class="s0" d="m653 108h29v76h-29z"/>
	</g>
</svg>